<svg xmlns="http://www.w3.org/2000/svg" version="1.1" style="display: block;"
    viewBox="0 0 2048 2048" width="1024" height="1024" preserveAspectRatio="none">
    <defs>
        <linearGradient id="Gradient1" gradientUnits="userSpaceOnUse" x1="1202.01" y1="1176.92"
            x2="831.591" y2="646.59">
            <stop class="stop0" offset="0" stop-opacity="1" stop-color="rgb(99,102,241)" />
            <stop class="stop1" offset="1" stop-opacity="1" stop-color="rgb(147,51,234)" />
        </linearGradient>
    </defs>
    <path transform="translate(0,0)" fill="url(#Gradient1)"
        d="M 978.291 899.973 C 1025.71 811.383 1021.19 743.982 1043.93 649.431 C 1053.45 608.952 1067.56 569.691 1085.98 532.409 C 1130.77 441.068 1190.76 382.666 1281.77 338.078 C 1333.61 312.676 1387.48 293.166 1438.78 266.439 C 1461.07 254.672 1482.44 241.251 1502.72 226.29 C 1511.7 219.646 1522.67 209.688 1531.64 204.182 C 1535.51 206.715 1539.75 209.824 1543.47 212.587 C 1559.64 224.592 1576.82 234.511 1594.2 244.68 C 1598.53 247.121 1603.9 249.965 1608.06 252.519 C 1626.19 260.486 1640.25 267.468 1659.19 274.638 C 1678.12 280.872 1696.88 287.124 1715.56 294.008 C 1794.17 322.983 1859.48 384.426 1896.45 459.278 C 1907.76 482.164 1916.81 504.318 1925.76 528.386 C 1894.93 516.261 1871.42 505.924 1838.55 496.013 L 1832.16 495.876 C 1811.35 500.754 1795.32 503.182 1774.09 506.07 C 1733.84 511.547 1684.6 516.401 1661.15 554.484 C 1656.22 562.61 1652.94 571.63 1651.51 581.027 C 1648.51 599.694 1653.02 618.779 1636.56 629.335 C 1604.25 631.345 1582.36 629.845 1548.99 635.261 C 1461.2 649.511 1356.3 700.91 1296.02 766.834 L 1295.7 768.164 C 1307.39 799.021 1324.26 833.037 1336.71 863.751 C 1364.74 932.911 1389.45 1024.67 1356.01 1096.01 C 1321.78 1169.06 1226.35 1226.98 1152.97 1254.76 C 1117.11 1268.34 1090.6 1275.5 1053.77 1283.58 C 1049.28 1284.7 1048.88 1284.94 1044.78 1287.22 C 1025.82 1304.44 998.771 1322.56 977.333 1337.12 C 952.784 1353.61 927.99 1369.72 902.958 1385.47 C 883.386 1397.88 862.315 1410.22 844.61 1425.18 C 764.095 1493.23 745.499 1598.55 747.197 1698.19 C 739.843 1686.27 731.479 1676.46 722.618 1665.68 C 697.264 1634.83 667.183 1601.84 626.855 1592.35 C 603.019 1586.58 578.003 1588.08 555.026 1596.65 C 553.399 1598.86 552.149 1600.49 550.761 1602.89 C 539.452 1634.01 529.66 1660.74 522.217 1693.57 C 516.464 1718.77 511.513 1744.63 504.125 1769.34 C 491.986 1809.94 472.455 1857.15 420.355 1838.73 C 406.906 1833.98 400.674 1829.9 389.458 1821.37 C 362.773 1801.07 355.814 1772.47 345.215 1742.38 C 337.228 1720.92 326.652 1699.24 311.299 1681.92 C 293.034 1661.32 277.735 1653.76 254.283 1640.55 C 208.009 1614.48 179.07 1583.13 155.226 1535.71 C 169.243 1491.22 191.058 1446.02 213.04 1404.98 C 297.946 1246.46 435.673 1126.66 610.373 1078.99 C 731.638 1045.9 828.3 1053.81 928.778 964.101 C 955.437 936.918 958.681 932.47 978.291 899.973 z" />
    <path transform="translate(0,0)" fill="rgb(79,70,229)"
        d="M 1024.13 822.408 C 1023.36 827.42 1022.54 832.437 1021.79 837.451 C 1006.25 940.988 946.411 1027.19 876.168 1102.15 C 841.058 1140.05 802.373 1174.49 760.652 1204.97 C 722.934 1232.59 683.254 1258.24 643.158 1282.47 C 563.506 1330.62 483.734 1376.37 439.653 1462.41 C 424.422 1492.14 419.756 1515.12 413.672 1546.91 C 448.559 1466.75 526.104 1395.7 607.146 1363.74 C 654.294 1345.2 704.616 1336.08 755.269 1336.89 C 775.894 1337.09 823.826 1340.44 847.021 1339.86 C 847.318 1340.05 847.614 1340.23 847.91 1340.41 C 860.198 1336.75 874.032 1334.36 886.71 1331.46 C 905.554 1326.95 924.296 1322.03 942.923 1316.7 C 957.911 1312.26 972.549 1307.73 987.231 1302.35 C 1002.94 1296.58 1027.84 1284.3 1044.78 1287.22 C 1025.82 1304.44 998.771 1322.56 977.333 1337.12 C 952.784 1353.61 927.99 1369.72 902.958 1385.47 C 883.386 1397.88 862.315 1410.22 844.61 1425.18 C 764.095 1493.23 745.499 1598.55 747.197 1698.19 C 739.843 1686.27 731.479 1676.46 722.618 1665.68 C 697.264 1634.83 667.183 1601.84 626.855 1592.35 C 603.019 1586.58 578.003 1588.08 555.026 1596.65 C 553.399 1598.86 552.149 1600.49 550.761 1602.89 C 539.452 1634.01 529.66 1660.74 522.217 1693.57 C 516.464 1718.77 511.513 1744.63 504.125 1769.34 C 491.986 1809.94 472.455 1857.15 420.355 1838.73 C 406.906 1833.98 400.674 1829.9 389.458 1821.37 C 362.773 1801.07 355.814 1772.47 345.215 1742.38 C 337.228 1720.92 326.652 1699.24 311.299 1681.92 C 293.034 1661.32 277.735 1653.76 254.283 1640.55 C 208.009 1614.48 179.07 1583.13 155.226 1535.71 C 169.243 1491.22 191.058 1446.02 213.04 1404.98 C 297.946 1246.46 435.673 1126.66 610.373 1078.99 C 731.638 1045.9 828.3 1053.81 928.778 964.101 C 955.437 936.918 958.681 932.47 978.291 899.973 C 989.673 897.318 1018.4 835.048 1024.13 822.408 z" />
    <path transform="translate(0,0)" fill="rgb(167,139,250)"
        d="M 928.778 964.101 C 929.46 971.848 922.936 977.822 917.342 984.325 C 870.131 1039.2 810.426 1083.7 744.38 1113.3 C 712.133 1127.75 679.717 1140.05 647.891 1155.06 C 513.473 1218.42 395.868 1312.88 307.071 1432.2 C 285.349 1461.38 271.879 1485.97 252.775 1515.88 C 270.793 1523.02 287.554 1532.99 302.426 1545.42 C 348.064 1582.99 376.555 1633.41 444.12 1635.79 C 464.573 1636.63 484.947 1632.75 503.662 1624.46 C 518.578 1618.02 532 1610.86 546.047 1602.84 C 547.721 1601.89 549.109 1602.19 550.761 1602.89 C 539.452 1634.01 529.66 1660.74 522.217 1693.57 C 516.464 1718.77 511.513 1744.63 504.125 1769.34 C 491.986 1809.94 472.455 1857.15 420.355 1838.73 C 406.906 1833.98 400.674 1829.9 389.458 1821.37 C 362.773 1801.07 355.814 1772.47 345.215 1742.38 C 337.228 1720.92 326.652 1699.24 311.299 1681.92 C 293.034 1661.32 277.735 1653.76 254.283 1640.55 C 208.009 1614.48 179.07 1583.13 155.226 1535.71 C 169.243 1491.22 191.058 1446.02 213.04 1404.98 C 297.946 1246.46 435.673 1126.66 610.373 1078.99 C 731.638 1045.9 828.3 1053.81 928.778 964.101 z" />
    <path transform="translate(0,0)" fill="rgb(167,139,250)"
        d="M 847.91 1340.41 C 860.198 1336.75 874.032 1334.36 886.71 1331.46 C 905.554 1326.95 924.296 1322.03 942.923 1316.7 C 957.911 1312.26 972.549 1307.73 987.231 1302.35 C 1002.94 1296.58 1027.84 1284.3 1044.78 1287.22 C 1025.82 1304.44 998.771 1322.56 977.333 1337.12 C 952.784 1353.61 927.99 1369.72 902.958 1385.47 C 883.386 1397.88 862.315 1410.22 844.61 1425.18 C 764.095 1493.23 745.499 1598.55 747.197 1698.19 C 739.843 1686.27 731.479 1676.46 722.618 1665.68 C 697.264 1634.83 667.183 1601.84 626.855 1592.35 C 603.019 1586.58 578.003 1588.08 555.026 1596.65 C 556.144 1588.77 562.106 1578.68 565.661 1571.33 C 626.107 1446.44 716.842 1382.58 847.91 1340.41 z" />
    <path transform="translate(0,0)" fill="rgb(79,70,229)"
        d="M 1594.2 244.68 C 1598.53 247.121 1603.9 249.965 1608.06 252.519 C 1626.19 260.486 1640.25 267.468 1659.19 274.638 C 1678.12 280.872 1696.88 287.124 1715.56 294.008 C 1794.17 322.983 1859.48 384.426 1896.45 459.278 C 1907.76 482.164 1916.81 504.318 1925.76 528.386 C 1894.93 516.261 1871.42 505.924 1838.55 496.013 L 1832.16 495.876 C 1811.35 500.754 1795.32 503.182 1774.09 506.07 C 1733.84 511.547 1684.6 516.401 1661.15 554.484 C 1656.22 562.61 1652.94 571.63 1651.51 581.027 C 1648.51 599.694 1653.02 618.779 1636.56 629.335 C 1604.25 631.345 1582.36 629.845 1548.99 635.261 C 1461.2 649.511 1356.3 700.91 1296.02 766.834 C 1287.57 748.396 1280.98 728.156 1274.47 708.957 C 1272.06 701.833 1270.16 693.27 1267.49 686.633 C 1264.49 681.319 1260.97 662.702 1259.33 655.739 C 1247.43 605.302 1245.78 554.988 1261.3 505.11 C 1284.51 428.99 1349.16 373.665 1420.86 344.045 C 1449.8 334.525 1474.93 323.555 1502.2 310.274 C 1530.5 296.488 1553.03 271.22 1579.17 257.403 C 1585.11 252.527 1589.01 252.718 1594.2 244.68 z" />
    <path transform="translate(0,0)" fill="rgb(167,139,250)"
        d="M 1267.49 686.633 C 1331.56 599.993 1433.6 532.842 1535.34 498.574 C 1617.26 470.985 1700.66 465.705 1785.24 482.979 C 1795.71 485.116 1823.19 491.369 1832.16 495.876 C 1811.35 500.754 1795.32 503.182 1774.09 506.07 C 1733.84 511.547 1684.6 516.401 1661.15 554.484 C 1656.22 562.61 1652.94 571.63 1651.51 581.027 C 1648.51 599.694 1653.02 618.779 1636.56 629.335 C 1604.25 631.345 1582.36 629.845 1548.99 635.261 C 1461.2 649.511 1356.3 700.91 1296.02 766.834 C 1287.57 748.396 1280.98 728.156 1274.47 708.957 C 1272.06 701.833 1270.16 693.27 1267.49 686.633 z" />
    <path transform="translate(0,0)" fill="rgb(167,139,250)"
        d="M 1659.19 274.638 C 1678.12 280.872 1696.88 287.124 1715.56 294.008 C 1794.17 322.983 1859.48 384.426 1896.45 459.278 C 1907.76 482.164 1916.81 504.318 1925.76 528.386 C 1894.93 516.261 1871.42 505.924 1838.55 496.013 C 1854.06 488.062 1867.92 487.509 1877.04 467.615 C 1882.51 455.708 1879.16 437.827 1872.46 426.568 C 1838.94 371.703 1778.74 337.863 1723.51 308.307 C 1713.01 302.689 1661.88 281.583 1659.19 274.638 z" />
    <path transform="translate(0,0)" fill="rgb(167,139,250)"
        d="M 1594.2 244.68 C 1598.53 247.121 1603.9 249.965 1608.06 252.519 C 1605.98 254.949 1605.79 255.676 1601.62 255.863 C 1593.97 256.206 1586.79 256.693 1579.17 257.403 C 1585.11 252.527 1589.01 252.718 1594.2 244.68 z" />
    <path transform="translate(0,0)" fill="rgb(167,139,250)"
        d="M 1295.7 768.164 C 1307.39 799.021 1324.26 833.037 1336.71 863.751 C 1364.74 932.911 1389.45 1024.67 1356.01 1096.01 C 1321.78 1169.06 1226.35 1226.98 1152.97 1254.76 C 1117.11 1268.34 1090.6 1275.5 1053.77 1283.58 C 1069.13 1263.54 1091.16 1246.65 1110.16 1230.64 C 1131.53 1212.64 1154.88 1182.5 1167.61 1157.77 C 1187.7 1120.85 1193.97 1082.51 1201.88 1042.18 C 1209.41 1003.74 1208.32 967.663 1214.58 929.934 C 1224.66 869.276 1254.58 813.634 1295.7 768.164 z" />
</svg>